<mxfile host="app.diagrams.net" agent="Mozilla/5.0 (Windows NT 10.0; Win64; x64) AppleWebKit/537.36 (KHTML, like Gecko) Chrome/132.0.0.0 Safari/537.36 Edg/132.0.0.0" version="26.0.10">
  <diagram name="Page-1" id="iQu3nyqo9eot8f81149F">
    <mxGraphModel dx="1426" dy="1881" grid="1" gridSize="10" guides="1" tooltips="1" connect="1" arrows="1" fold="1" page="1" pageScale="1" pageWidth="850" pageHeight="1100" math="0" shadow="0">
      <root>
        <mxCell id="0" />
        <mxCell id="1" parent="0" />
        <mxCell id="WT15TES9iAEyX-zyvtR5-6" value="" style="edgeStyle=orthogonalEdgeStyle;rounded=0;orthogonalLoop=1;jettySize=auto;html=1;" parent="1" source="WT15TES9iAEyX-zyvtR5-1" target="WT15TES9iAEyX-zyvtR5-2" edge="1">
          <mxGeometry relative="1" as="geometry" />
        </mxCell>
        <mxCell id="WT15TES9iAEyX-zyvtR5-8" value="Calls" style="edgeLabel;html=1;align=center;verticalAlign=middle;resizable=0;points=[];" parent="WT15TES9iAEyX-zyvtR5-6" vertex="1" connectable="0">
          <mxGeometry x="-0.1092" y="2" relative="1" as="geometry">
            <mxPoint as="offset" />
          </mxGeometry>
        </mxCell>
        <mxCell id="WT15TES9iAEyX-zyvtR5-24" value="1" style="edgeLabel;html=1;align=center;verticalAlign=middle;resizable=0;points=[];" parent="WT15TES9iAEyX-zyvtR5-6" vertex="1" connectable="0">
          <mxGeometry x="0.2639" y="4" relative="1" as="geometry">
            <mxPoint as="offset" />
          </mxGeometry>
        </mxCell>
        <mxCell id="WT15TES9iAEyX-zyvtR5-1" value="Customer" style="rounded=0;whiteSpace=wrap;html=1;" parent="1" vertex="1">
          <mxGeometry x="30" y="90" width="120" height="60" as="geometry" />
        </mxCell>
        <mxCell id="WT15TES9iAEyX-zyvtR5-18" style="edgeStyle=orthogonalEdgeStyle;rounded=0;orthogonalLoop=1;jettySize=auto;html=1;exitX=0.75;exitY=1;exitDx=0;exitDy=0;" parent="1" source="WT15TES9iAEyX-zyvtR5-2" target="WT15TES9iAEyX-zyvtR5-46" edge="1">
          <mxGeometry relative="1" as="geometry">
            <mxPoint x="480" y="480" as="targetPoint" />
          </mxGeometry>
        </mxCell>
        <mxCell id="WT15TES9iAEyX-zyvtR5-19" value="Billing Info and&amp;nbsp;&lt;div&gt;other details&amp;nbsp;&lt;/div&gt;" style="edgeLabel;html=1;align=center;verticalAlign=middle;resizable=0;points=[];" parent="WT15TES9iAEyX-zyvtR5-18" vertex="1" connectable="0">
          <mxGeometry x="-0.012" y="2" relative="1" as="geometry">
            <mxPoint as="offset" />
          </mxGeometry>
        </mxCell>
        <mxCell id="WT15TES9iAEyX-zyvtR5-26" value="3" style="edgeLabel;html=1;align=center;verticalAlign=middle;resizable=0;points=[];" parent="WT15TES9iAEyX-zyvtR5-18" vertex="1" connectable="0">
          <mxGeometry x="-0.4451" y="2" relative="1" as="geometry">
            <mxPoint as="offset" />
          </mxGeometry>
        </mxCell>
        <mxCell id="WT15TES9iAEyX-zyvtR5-21" style="edgeStyle=orthogonalEdgeStyle;rounded=0;orthogonalLoop=1;jettySize=auto;html=1;exitX=0;exitY=0.25;exitDx=0;exitDy=0;" parent="1" source="WT15TES9iAEyX-zyvtR5-2" edge="1">
          <mxGeometry relative="1" as="geometry">
            <mxPoint x="440" y="80" as="targetPoint" />
            <Array as="points">
              <mxPoint x="370" y="105" />
              <mxPoint x="370" y="-70" />
              <mxPoint x="440" y="-70" />
            </Array>
          </mxGeometry>
        </mxCell>
        <mxCell id="WT15TES9iAEyX-zyvtR5-22" value="Authenticated by SF&lt;div&gt;Interaction Launcher&lt;/div&gt;" style="edgeLabel;html=1;align=center;verticalAlign=middle;resizable=0;points=[];" parent="WT15TES9iAEyX-zyvtR5-21" vertex="1" connectable="0">
          <mxGeometry x="-0.4828" relative="1" as="geometry">
            <mxPoint y="-1" as="offset" />
          </mxGeometry>
        </mxCell>
        <mxCell id="WT15TES9iAEyX-zyvtR5-25" value="2" style="edgeLabel;html=1;align=center;verticalAlign=middle;resizable=0;points=[];" parent="WT15TES9iAEyX-zyvtR5-21" vertex="1" connectable="0">
          <mxGeometry x="-0.6371" y="-4" relative="1" as="geometry">
            <mxPoint y="-1" as="offset" />
          </mxGeometry>
        </mxCell>
        <mxCell id="WT15TES9iAEyX-zyvtR5-28" style="edgeStyle=orthogonalEdgeStyle;rounded=0;orthogonalLoop=1;jettySize=auto;html=1;exitX=1;exitY=0.5;exitDx=0;exitDy=0;entryX=0;entryY=0.5;entryDx=0;entryDy=0;" parent="1" source="WT15TES9iAEyX-zyvtR5-2" target="WT15TES9iAEyX-zyvtR5-12" edge="1">
          <mxGeometry relative="1" as="geometry" />
        </mxCell>
        <mxCell id="WT15TES9iAEyX-zyvtR5-29" value="5" style="edgeLabel;html=1;align=center;verticalAlign=middle;resizable=0;points=[];" parent="WT15TES9iAEyX-zyvtR5-28" vertex="1" connectable="0">
          <mxGeometry x="0.1016" y="4" relative="1" as="geometry">
            <mxPoint as="offset" />
          </mxGeometry>
        </mxCell>
        <mxCell id="WT15TES9iAEyX-zyvtR5-2" value="Salesforce" style="rounded=0;whiteSpace=wrap;html=1;" parent="1" vertex="1">
          <mxGeometry x="390" y="90" width="120" height="60" as="geometry" />
        </mxCell>
        <mxCell id="WT15TES9iAEyX-zyvtR5-3" value="SAP CRM/ISU" style="rounded=0;whiteSpace=wrap;html=1;" parent="1" vertex="1">
          <mxGeometry x="410" y="480" width="120" height="60" as="geometry" />
        </mxCell>
        <mxCell id="WT15TES9iAEyX-zyvtR5-42" style="edgeStyle=orthogonalEdgeStyle;rounded=0;orthogonalLoop=1;jettySize=auto;html=1;exitX=1;exitY=0.5;exitDx=0;exitDy=0;entryX=0;entryY=0.5;entryDx=0;entryDy=0;" parent="1" source="WT15TES9iAEyX-zyvtR5-4" target="WT15TES9iAEyX-zyvtR5-36" edge="1">
          <mxGeometry relative="1" as="geometry" />
        </mxCell>
        <mxCell id="WT15TES9iAEyX-zyvtR5-4" value="WestPac" style="rounded=0;whiteSpace=wrap;html=1;" parent="1" vertex="1">
          <mxGeometry x="951" y="450" width="120" height="60" as="geometry" />
        </mxCell>
        <mxCell id="WT15TES9iAEyX-zyvtR5-37" style="edgeStyle=orthogonalEdgeStyle;rounded=0;orthogonalLoop=1;jettySize=auto;html=1;exitX=1;exitY=0.5;exitDx=0;exitDy=0;entryX=0;entryY=0.5;entryDx=0;entryDy=0;" parent="1" source="WT15TES9iAEyX-zyvtR5-12" target="WT15TES9iAEyX-zyvtR5-30" edge="1">
          <mxGeometry relative="1" as="geometry" />
        </mxCell>
        <mxCell id="WT15TES9iAEyX-zyvtR5-38" style="edgeStyle=orthogonalEdgeStyle;rounded=0;orthogonalLoop=1;jettySize=auto;html=1;exitX=1;exitY=0.5;exitDx=0;exitDy=0;entryX=0.5;entryY=0;entryDx=0;entryDy=0;" parent="1" source="WT15TES9iAEyX-zyvtR5-12" target="WT15TES9iAEyX-zyvtR5-35" edge="1">
          <mxGeometry relative="1" as="geometry">
            <Array as="points">
              <mxPoint x="890" y="120" />
              <mxPoint x="890" />
              <mxPoint x="1230" />
            </Array>
          </mxGeometry>
        </mxCell>
        <mxCell id="WT15TES9iAEyX-zyvtR5-39" style="edgeStyle=orthogonalEdgeStyle;rounded=0;orthogonalLoop=1;jettySize=auto;html=1;exitX=1;exitY=0.5;exitDx=0;exitDy=0;entryX=0.5;entryY=0;entryDx=0;entryDy=0;" parent="1" source="WT15TES9iAEyX-zyvtR5-12" target="WT15TES9iAEyX-zyvtR5-34" edge="1">
          <mxGeometry relative="1" as="geometry">
            <Array as="points">
              <mxPoint x="890" y="120" />
              <mxPoint x="890" />
              <mxPoint x="1420" />
            </Array>
          </mxGeometry>
        </mxCell>
        <mxCell id="WT15TES9iAEyX-zyvtR5-40" style="edgeStyle=orthogonalEdgeStyle;rounded=0;orthogonalLoop=1;jettySize=auto;html=1;exitX=1;exitY=0.5;exitDx=0;exitDy=0;entryX=0.5;entryY=0;entryDx=0;entryDy=0;" parent="1" edge="1">
          <mxGeometry relative="1" as="geometry">
            <mxPoint x="849.97" y="119.93" as="sourcePoint" />
            <mxPoint x="1609.97" y="19.93" as="targetPoint" />
            <Array as="points">
              <mxPoint x="899.97" y="119.93" />
              <mxPoint x="899.97" y="-0.07" />
              <mxPoint x="1609.97" y="-0.07" />
            </Array>
          </mxGeometry>
        </mxCell>
        <mxCell id="WT15TES9iAEyX-zyvtR5-12" value="Salesforce Customer Details Page ( Agent View)" style="rounded=0;whiteSpace=wrap;html=1;" parent="1" vertex="1">
          <mxGeometry x="720" y="90" width="120" height="60" as="geometry" />
        </mxCell>
        <mxCell id="WT15TES9iAEyX-zyvtR5-23" style="edgeStyle=orthogonalEdgeStyle;rounded=0;orthogonalLoop=1;jettySize=auto;html=1;exitX=0.25;exitY=0;exitDx=0;exitDy=0;entryX=0.25;entryY=1;entryDx=0;entryDy=0;" parent="1" source="WT15TES9iAEyX-zyvtR5-3" target="WT15TES9iAEyX-zyvtR5-46" edge="1">
          <mxGeometry relative="1" as="geometry" />
        </mxCell>
        <mxCell id="WT15TES9iAEyX-zyvtR5-27" value="4" style="edgeLabel;html=1;align=center;verticalAlign=middle;resizable=0;points=[];" parent="WT15TES9iAEyX-zyvtR5-23" vertex="1" connectable="0">
          <mxGeometry x="0.4389" y="-5" relative="1" as="geometry">
            <mxPoint y="1" as="offset" />
          </mxGeometry>
        </mxCell>
        <mxCell id="WT15TES9iAEyX-zyvtR5-41" style="edgeStyle=orthogonalEdgeStyle;rounded=0;orthogonalLoop=1;jettySize=auto;html=1;exitX=0.5;exitY=1;exitDx=0;exitDy=0;" parent="1" source="WT15TES9iAEyX-zyvtR5-30" target="WT15TES9iAEyX-zyvtR5-4" edge="1">
          <mxGeometry relative="1" as="geometry" />
        </mxCell>
        <mxCell id="WT15TES9iAEyX-zyvtR5-30" value="Make a Payment" style="rounded=0;whiteSpace=wrap;html=1;" parent="1" vertex="1">
          <mxGeometry x="950" y="20" width="120" height="60" as="geometry" />
        </mxCell>
        <mxCell id="WT15TES9iAEyX-zyvtR5-45" style="edgeStyle=orthogonalEdgeStyle;rounded=0;orthogonalLoop=1;jettySize=auto;html=1;exitX=0.5;exitY=1;exitDx=0;exitDy=0;entryX=1;entryY=0.5;entryDx=0;entryDy=0;" parent="1" source="WT15TES9iAEyX-zyvtR5-33" target="WT15TES9iAEyX-zyvtR5-47" edge="1">
          <mxGeometry relative="1" as="geometry" />
        </mxCell>
        <mxCell id="WT15TES9iAEyX-zyvtR5-33" value="Payment Arrangement" style="rounded=0;whiteSpace=wrap;html=1;" parent="1" vertex="1">
          <mxGeometry x="1540" y="20" width="120" height="60" as="geometry" />
        </mxCell>
        <mxCell id="WT15TES9iAEyX-zyvtR5-44" style="edgeStyle=orthogonalEdgeStyle;rounded=0;orthogonalLoop=1;jettySize=auto;html=1;exitX=0.5;exitY=1;exitDx=0;exitDy=0;" parent="1" source="WT15TES9iAEyX-zyvtR5-34" target="WT15TES9iAEyX-zyvtR5-47" edge="1">
          <mxGeometry relative="1" as="geometry" />
        </mxCell>
        <mxCell id="WT15TES9iAEyX-zyvtR5-34" value="Direct Debit" style="rounded=0;whiteSpace=wrap;html=1;" parent="1" vertex="1">
          <mxGeometry x="1360" y="20" width="120" height="60" as="geometry" />
        </mxCell>
        <mxCell id="WT15TES9iAEyX-zyvtR5-43" style="edgeStyle=orthogonalEdgeStyle;rounded=0;orthogonalLoop=1;jettySize=auto;html=1;exitX=0.5;exitY=1;exitDx=0;exitDy=0;" parent="1" source="WT15TES9iAEyX-zyvtR5-35" target="WT15TES9iAEyX-zyvtR5-47" edge="1">
          <mxGeometry relative="1" as="geometry" />
        </mxCell>
        <mxCell id="WT15TES9iAEyX-zyvtR5-35" value="Adhoc Refund" style="rounded=0;whiteSpace=wrap;html=1;" parent="1" vertex="1">
          <mxGeometry x="1170" y="20" width="120" height="60" as="geometry" />
        </mxCell>
        <mxCell id="WT15TES9iAEyX-zyvtR5-36" value="SAP CRM/ISU" style="rounded=0;whiteSpace=wrap;html=1;" parent="1" vertex="1">
          <mxGeometry x="1171" y="450" width="120" height="60" as="geometry" />
        </mxCell>
        <mxCell id="WT15TES9iAEyX-zyvtR5-50" value="" style="edgeStyle=orthogonalEdgeStyle;rounded=0;orthogonalLoop=1;jettySize=auto;html=1;entryX=0.5;entryY=0;entryDx=0;entryDy=0;" parent="1" source="WT15TES9iAEyX-zyvtR5-46" target="WT15TES9iAEyX-zyvtR5-3" edge="1">
          <mxGeometry relative="1" as="geometry">
            <mxPoint x="570" y="390" as="targetPoint" />
          </mxGeometry>
        </mxCell>
        <mxCell id="WT15TES9iAEyX-zyvtR5-51" style="edgeStyle=orthogonalEdgeStyle;rounded=0;orthogonalLoop=1;jettySize=auto;html=1;exitX=0.25;exitY=0;exitDx=0;exitDy=0;entryX=0.25;entryY=1;entryDx=0;entryDy=0;" parent="1" source="WT15TES9iAEyX-zyvtR5-46" target="WT15TES9iAEyX-zyvtR5-2" edge="1">
          <mxGeometry relative="1" as="geometry" />
        </mxCell>
        <mxCell id="WT15TES9iAEyX-zyvtR5-46" value="MuleSoft Orchestration/Domain" style="rounded=0;whiteSpace=wrap;html=1;" parent="1" vertex="1">
          <mxGeometry x="411" y="250" width="120" height="60" as="geometry" />
        </mxCell>
        <mxCell id="WT15TES9iAEyX-zyvtR5-48" style="edgeStyle=orthogonalEdgeStyle;rounded=0;orthogonalLoop=1;jettySize=auto;html=1;exitX=0.5;exitY=1;exitDx=0;exitDy=0;" parent="1" source="WT15TES9iAEyX-zyvtR5-47" target="WT15TES9iAEyX-zyvtR5-36" edge="1">
          <mxGeometry relative="1" as="geometry" />
        </mxCell>
        <mxCell id="WT15TES9iAEyX-zyvtR5-47" value="MuleSoft Orchestration/Domain" style="rounded=0;whiteSpace=wrap;html=1;" parent="1" vertex="1">
          <mxGeometry x="1250" y="210" width="120" height="60" as="geometry" />
        </mxCell>
        <mxCell id="VWdCm63Dc9zV1A_2QBoc-2" style="edgeStyle=orthogonalEdgeStyle;rounded=0;orthogonalLoop=1;jettySize=auto;html=1;exitX=0.5;exitY=1;exitDx=0;exitDy=0;entryX=0.5;entryY=0;entryDx=0;entryDy=0;" edge="1" parent="1" source="WT15TES9iAEyX-zyvtR5-52" target="VWdCm63Dc9zV1A_2QBoc-1">
          <mxGeometry relative="1" as="geometry" />
        </mxCell>
        <mxCell id="WT15TES9iAEyX-zyvtR5-52" value="MS Payment Domain" style="rounded=0;whiteSpace=wrap;html=1;" parent="1" vertex="1">
          <mxGeometry x="440" y="680" width="120" height="60" as="geometry" />
        </mxCell>
        <mxCell id="VWdCm63Dc9zV1A_2QBoc-4" style="edgeStyle=orthogonalEdgeStyle;rounded=0;orthogonalLoop=1;jettySize=auto;html=1;exitX=0.5;exitY=1;exitDx=0;exitDy=0;entryX=0.5;entryY=0;entryDx=0;entryDy=0;" edge="1" parent="1" source="WT15TES9iAEyX-zyvtR5-53" target="VWdCm63Dc9zV1A_2QBoc-1">
          <mxGeometry relative="1" as="geometry" />
        </mxCell>
        <mxCell id="WT15TES9iAEyX-zyvtR5-53" value="MS Customer Domain" style="rounded=0;whiteSpace=wrap;html=1;" parent="1" vertex="1">
          <mxGeometry x="600" y="680" width="120" height="60" as="geometry" />
        </mxCell>
        <mxCell id="VWdCm63Dc9zV1A_2QBoc-5" style="edgeStyle=orthogonalEdgeStyle;rounded=0;orthogonalLoop=1;jettySize=auto;html=1;exitX=0.5;exitY=1;exitDx=0;exitDy=0;" edge="1" parent="1" source="WT15TES9iAEyX-zyvtR5-54" target="VWdCm63Dc9zV1A_2QBoc-1">
          <mxGeometry relative="1" as="geometry" />
        </mxCell>
        <mxCell id="WT15TES9iAEyX-zyvtR5-54" value="MS Billing Domain" style="rounded=0;whiteSpace=wrap;html=1;" parent="1" vertex="1">
          <mxGeometry x="800" y="680" width="120" height="60" as="geometry" />
        </mxCell>
        <mxCell id="WT15TES9iAEyX-zyvtR5-59" style="edgeStyle=orthogonalEdgeStyle;rounded=0;orthogonalLoop=1;jettySize=auto;html=1;exitX=0.5;exitY=1;exitDx=0;exitDy=0;" parent="1" source="WT15TES9iAEyX-zyvtR5-56" target="WT15TES9iAEyX-zyvtR5-58" edge="1">
          <mxGeometry relative="1" as="geometry" />
        </mxCell>
        <mxCell id="WT15TES9iAEyX-zyvtR5-61" value="1.1" style="edgeLabel;html=1;align=center;verticalAlign=middle;resizable=0;points=[];" parent="WT15TES9iAEyX-zyvtR5-59" vertex="1" connectable="0">
          <mxGeometry x="0.6568" y="-4" relative="1" as="geometry">
            <mxPoint as="offset" />
          </mxGeometry>
        </mxCell>
        <mxCell id="WT15TES9iAEyX-zyvtR5-60" style="edgeStyle=orthogonalEdgeStyle;rounded=0;orthogonalLoop=1;jettySize=auto;html=1;exitX=0.5;exitY=1;exitDx=0;exitDy=0;entryX=0.5;entryY=0;entryDx=0;entryDy=0;" parent="1" source="WT15TES9iAEyX-zyvtR5-56" target="WT15TES9iAEyX-zyvtR5-57" edge="1">
          <mxGeometry relative="1" as="geometry" />
        </mxCell>
        <mxCell id="WT15TES9iAEyX-zyvtR5-62" value="1.2" style="edgeLabel;html=1;align=center;verticalAlign=middle;resizable=0;points=[];" parent="WT15TES9iAEyX-zyvtR5-60" vertex="1" connectable="0">
          <mxGeometry x="0.7009" y="3" relative="1" as="geometry">
            <mxPoint as="offset" />
          </mxGeometry>
        </mxCell>
        <mxCell id="WT15TES9iAEyX-zyvtR5-64" style="edgeStyle=orthogonalEdgeStyle;rounded=0;orthogonalLoop=1;jettySize=auto;html=1;exitX=0.5;exitY=1;exitDx=0;exitDy=0;" parent="1" source="WT15TES9iAEyX-zyvtR5-56" target="WT15TES9iAEyX-zyvtR5-63" edge="1">
          <mxGeometry relative="1" as="geometry" />
        </mxCell>
        <mxCell id="WT15TES9iAEyX-zyvtR5-65" value="1.3" style="edgeLabel;html=1;align=center;verticalAlign=middle;resizable=0;points=[];" parent="WT15TES9iAEyX-zyvtR5-64" vertex="1" connectable="0">
          <mxGeometry x="0.8315" relative="1" as="geometry">
            <mxPoint as="offset" />
          </mxGeometry>
        </mxCell>
        <mxCell id="WT15TES9iAEyX-zyvtR5-56" value="MS Orchestration" style="rounded=0;whiteSpace=wrap;html=1;" parent="1" vertex="1">
          <mxGeometry x="1030" y="680" width="120" height="60" as="geometry" />
        </mxCell>
        <mxCell id="VWdCm63Dc9zV1A_2QBoc-8" style="edgeStyle=orthogonalEdgeStyle;rounded=0;orthogonalLoop=1;jettySize=auto;html=1;exitX=0.5;exitY=1;exitDx=0;exitDy=0;entryX=0.5;entryY=0;entryDx=0;entryDy=0;" edge="1" parent="1" source="WT15TES9iAEyX-zyvtR5-57" target="VWdCm63Dc9zV1A_2QBoc-6">
          <mxGeometry relative="1" as="geometry" />
        </mxCell>
        <mxCell id="WT15TES9iAEyX-zyvtR5-57" value="MS Payment&lt;div&gt;&amp;nbsp;Domain&lt;/div&gt;" style="rounded=0;whiteSpace=wrap;html=1;" parent="1" vertex="1">
          <mxGeometry x="1171" y="900" width="120" height="60" as="geometry" />
        </mxCell>
        <mxCell id="VWdCm63Dc9zV1A_2QBoc-7" style="edgeStyle=orthogonalEdgeStyle;rounded=0;orthogonalLoop=1;jettySize=auto;html=1;exitX=0.5;exitY=1;exitDx=0;exitDy=0;entryX=0;entryY=0.5;entryDx=0;entryDy=0;" edge="1" parent="1" source="WT15TES9iAEyX-zyvtR5-58" target="VWdCm63Dc9zV1A_2QBoc-6">
          <mxGeometry relative="1" as="geometry" />
        </mxCell>
        <mxCell id="WT15TES9iAEyX-zyvtR5-58" value="MS Customer Domain" style="rounded=0;whiteSpace=wrap;html=1;" parent="1" vertex="1">
          <mxGeometry x="920" y="900" width="120" height="60" as="geometry" />
        </mxCell>
        <mxCell id="VWdCm63Dc9zV1A_2QBoc-9" style="edgeStyle=orthogonalEdgeStyle;rounded=0;orthogonalLoop=1;jettySize=auto;html=1;exitX=0.5;exitY=1;exitDx=0;exitDy=0;entryX=1;entryY=0.5;entryDx=0;entryDy=0;" edge="1" parent="1" source="WT15TES9iAEyX-zyvtR5-63" target="VWdCm63Dc9zV1A_2QBoc-6">
          <mxGeometry relative="1" as="geometry" />
        </mxCell>
        <mxCell id="WT15TES9iAEyX-zyvtR5-63" value="MS Billing&lt;div&gt;&amp;nbsp;Domain&lt;/div&gt;" style="rounded=0;whiteSpace=wrap;html=1;" parent="1" vertex="1">
          <mxGeometry x="1420" y="900" width="120" height="60" as="geometry" />
        </mxCell>
        <mxCell id="WT15TES9iAEyX-zyvtR5-66" value="Elec, Gas and Telco" style="rounded=0;whiteSpace=wrap;html=1;fillColor=light-dark(#80FF00,var(--ge-dark-color, #121212));" parent="1" vertex="1">
          <mxGeometry x="670" y="-140" width="120" height="60" as="geometry" />
        </mxCell>
        <mxCell id="WT15TES9iAEyX-zyvtR5-67" value="1. Customer data caching&lt;div&gt;2.Lazy Loading&lt;/div&gt;&lt;div&gt;3.Split customer journey into multiple pages&lt;/div&gt;&lt;div&gt;4. 20% custom and 80% OOTB &lt;b&gt;(hard rule)&lt;/b&gt;&lt;/div&gt;&lt;div&gt;5.Reusable Architecture/Screen /API for Sales, Billing and C&amp;amp;P&lt;/div&gt;&lt;div&gt;6. Transaction on each page to avoid final heavy payload&lt;/div&gt;" style="rounded=0;whiteSpace=wrap;html=1;" parent="1" vertex="1">
          <mxGeometry x="1030" y="-410" width="600" height="250" as="geometry" />
        </mxCell>
        <mxCell id="VWdCm63Dc9zV1A_2QBoc-1" value="SAP CRM/ISU" style="rounded=0;whiteSpace=wrap;html=1;" vertex="1" parent="1">
          <mxGeometry x="580" y="910" width="120" height="60" as="geometry" />
        </mxCell>
        <mxCell id="VWdCm63Dc9zV1A_2QBoc-6" value="SAP CRM/ISU" style="rounded=0;whiteSpace=wrap;html=1;" vertex="1" parent="1">
          <mxGeometry x="1171" y="1080" width="120" height="60" as="geometry" />
        </mxCell>
        <mxCell id="VWdCm63Dc9zV1A_2QBoc-11" style="edgeStyle=orthogonalEdgeStyle;rounded=0;orthogonalLoop=1;jettySize=auto;html=1;exitX=0.5;exitY=1;exitDx=0;exitDy=0;entryX=0.5;entryY=0;entryDx=0;entryDy=0;" edge="1" parent="1" source="VWdCm63Dc9zV1A_2QBoc-10" target="WT15TES9iAEyX-zyvtR5-52">
          <mxGeometry relative="1" as="geometry" />
        </mxCell>
        <mxCell id="VWdCm63Dc9zV1A_2QBoc-12" style="edgeStyle=orthogonalEdgeStyle;rounded=0;orthogonalLoop=1;jettySize=auto;html=1;exitX=0.5;exitY=1;exitDx=0;exitDy=0;entryX=0.5;entryY=0;entryDx=0;entryDy=0;" edge="1" parent="1" source="VWdCm63Dc9zV1A_2QBoc-10" target="WT15TES9iAEyX-zyvtR5-53">
          <mxGeometry relative="1" as="geometry" />
        </mxCell>
        <mxCell id="VWdCm63Dc9zV1A_2QBoc-14" style="edgeStyle=orthogonalEdgeStyle;rounded=0;orthogonalLoop=1;jettySize=auto;html=1;exitX=0.5;exitY=1;exitDx=0;exitDy=0;" edge="1" parent="1" source="VWdCm63Dc9zV1A_2QBoc-10" target="WT15TES9iAEyX-zyvtR5-56">
          <mxGeometry relative="1" as="geometry" />
        </mxCell>
        <mxCell id="VWdCm63Dc9zV1A_2QBoc-10" value="Salesforce" style="rounded=0;whiteSpace=wrap;html=1;" vertex="1" parent="1">
          <mxGeometry x="740" y="540" width="120" height="60" as="geometry" />
        </mxCell>
        <mxCell id="VWdCm63Dc9zV1A_2QBoc-13" style="edgeStyle=orthogonalEdgeStyle;rounded=0;orthogonalLoop=1;jettySize=auto;html=1;exitX=0.5;exitY=1;exitDx=0;exitDy=0;entryX=0.558;entryY=-0.017;entryDx=0;entryDy=0;entryPerimeter=0;" edge="1" parent="1" source="VWdCm63Dc9zV1A_2QBoc-10" target="WT15TES9iAEyX-zyvtR5-54">
          <mxGeometry relative="1" as="geometry" />
        </mxCell>
      </root>
    </mxGraphModel>
  </diagram>
</mxfile>
